<svg width="25" height="23" viewBox="0 0 25 23" fill="none" xmlns="http://www.w3.org/2000/svg">
<path d="M23.75 11.525C23.75 4.6625 18.425 0 12.5 0C6.6375 0 1.25 4.5625 1.25 11.6C0.5 12.025 0 12.825 0 13.75V16.25C0 17.625 1.125 18.75 2.5 18.75H3.75V11.125C3.75 6.2875 7.6625 2.375 12.5 2.375C17.3375 2.375 21.25 6.2875 21.25 11.125V20H11.25V22.5H21.25C22.625 22.5 23.75 21.375 23.75 20V18.475C24.4875 18.0875 25 17.325 25 16.425V13.55C25 12.675 24.4875 11.9125 23.75 11.525Z" fill="#4F46E5"/>
<path d="M8.75 13.75C9.44036 13.75 10 13.1904 10 12.5C10 11.8096 9.44036 11.25 8.75 11.25C8.05964 11.25 7.5 11.8096 7.5 12.5C7.5 13.1904 8.05964 13.75 8.75 13.75Z" fill="#4F46E5"/>
<path d="M16.25 13.75C16.9404 13.75 17.5 13.1904 17.5 12.5C17.5 11.8096 16.9404 11.25 16.25 11.25C15.5596 11.25 15 11.8096 15 12.5C15 13.1904 15.5596 13.75 16.25 13.75Z" fill="#4F46E5"/>
<path d="M20.0011 10.0375C19.4011 6.475 16.3011 3.75 12.5636 3.75C8.77606 3.75 4.70106 6.8875 5.02606 11.8125C8.11356 10.55 10.4386 7.8 11.1011 4.45C12.7386 7.7375 16.1011 10 20.0011 10.0375Z" fill="#4F46E5"/>
</svg>
