<svg width="48" height="48" viewBox="0 0 48 48" fill="none" xmlns="http://www.w3.org/2000/svg">
<path d="M0 8C0 3.58172 3.58172 0 8 0H40C44.4183 0 48 3.58172 48 8V40C48 44.4183 44.4183 48 40 48H8C3.58172 48 0 44.4183 0 40V8Z" fill="#E0E7FF"/>
<path d="M0 8C0 3.58172 3.58172 0 8 0H40C44.4183 0 48 3.58172 48 8V40C48 44.4183 44.4183 48 40 48H8C3.58172 48 0 44.4183 0 40V8Z" stroke="#E5E7EB"/>
<path d="M14 14H34V34H14V14Z" stroke="#E5E7EB"/>
<g clip-path="url(#clip0_2432_2491)">
<path d="M31.5 24C31.5 23.0151 31.306 22.0398 30.9291 21.1299C30.5522 20.2199 29.9997 19.3931 29.3033 18.6967C28.6069 18.0003 27.7801 17.4478 26.8701 17.0709C25.9602 16.694 24.9849 16.5 24 16.5C23.0151 16.5 22.0398 16.694 21.1299 17.0709C20.2199 17.4478 19.3931 18.0003 18.6967 18.6967C18.0003 19.3931 17.4478 20.2199 17.0709 21.1299C16.694 22.0398 16.5 23.0151 16.5 24C16.5 24.9849 16.694 25.9602 17.0709 26.8701C17.4478 27.7801 18.0003 28.6069 18.6967 29.3033C19.3931 29.9997 20.2199 30.5522 21.1299 30.9291C22.0398 31.306 23.0151 31.5 24 31.5C24.9849 31.5 25.9602 31.306 26.8701 30.9291C27.7801 30.5522 28.6069 29.9997 29.3033 29.3033C29.9997 28.6069 30.5522 27.7801 30.9291 26.8701C31.306 25.9602 31.5 24.9849 31.5 24ZM14 24C14 21.3478 15.0536 18.8043 16.9289 16.9289C18.8043 15.0536 21.3478 14 24 14C26.6522 14 29.1957 15.0536 31.0711 16.9289C32.9464 18.8043 34 21.3478 34 24C34 26.6522 32.9464 29.1957 31.0711 31.0711C29.1957 32.9464 26.6522 34 24 34C21.3478 34 18.8043 32.9464 16.9289 31.0711C15.0536 29.1957 14 26.6522 14 24ZM24 27.125C24.8288 27.125 25.6237 26.7958 26.2097 26.2097C26.7958 25.6237 27.125 24.8288 27.125 24C27.125 23.1712 26.7958 22.3763 26.2097 21.7903C25.6237 21.2042 24.8288 20.875 24 20.875C23.1712 20.875 22.3763 21.2042 21.7903 21.7903C21.2042 22.3763 20.875 23.1712 20.875 24C20.875 24.8288 21.2042 25.6237 21.7903 26.2097C22.3763 26.7958 23.1712 27.125 24 27.125ZM24 18.375C25.4918 18.375 26.9226 18.9676 27.9775 20.0225C29.0324 21.0774 29.625 22.5082 29.625 24C29.625 25.4918 29.0324 26.9226 27.9775 27.9775C26.9226 29.0324 25.4918 29.625 24 29.625C22.5082 29.625 21.0774 29.0324 20.0225 27.9775C18.9676 26.9226 18.375 25.4918 18.375 24C18.375 22.5082 18.9676 21.0774 20.0225 20.0225C21.0774 18.9676 22.5082 18.375 24 18.375ZM22.75 24C22.75 23.6685 22.8817 23.3505 23.1161 23.1161C23.3505 22.8817 23.6685 22.75 24 22.75C24.3315 22.75 24.6495 22.8817 24.8839 23.1161C25.1183 23.3505 25.25 23.6685 25.25 24C25.25 24.3315 25.1183 24.6495 24.8839 24.8839C24.6495 25.1183 24.3315 25.25 24 25.25C23.6685 25.25 23.3505 25.1183 23.1161 24.8839C22.8817 24.6495 22.75 24.3315 22.75 24Z" fill="#4F46E5"/>
</g>
<defs>
<clipPath id="clip0_2432_2491">
<path d="M14 14H34V34H14V14Z" fill="white"/>
</clipPath>
</defs>
</svg>
