<svg width="48" height="48" viewBox="0 0 48 48" fill="none" xmlns="http://www.w3.org/2000/svg">
<path d="M0 8C0 3.58172 3.58172 0 8 0H40C44.4183 0 48 3.58172 48 8V40C48 44.4183 44.4183 48 40 48H8C3.58172 48 0 44.4183 0 40V8Z" fill="#E0E7FF"/>
<path d="M0 8C0 3.58172 3.58172 0 8 0H40C44.4183 0 48 3.58172 48 8V40C48 44.4183 44.4183 48 40 48H8C3.58172 48 0 44.4183 0 40V8Z" stroke="#E5E7EB"/>
<path d="M29 13H17C15.9 13 15 13.9 15 15V29H17V15H29V13ZM32 17H21C19.9 17 19 17.9 19 19V33C19 34.1 19.9 35 21 35H32C33.1 35 34 34.1 34 33V19C34 17.9 33.1 17 32 17ZM32 33H21V19H32V33Z" fill="#4F46E5"/>
</svg>
