<svg width="30" height="24" viewBox="0 0 30 24" fill="none" xmlns="http://www.w3.org/2000/svg">
<path d="M10.6667 16C7.10667 16 0 17.7867 0 21.3333V24H21.3333V21.3333C21.3333 17.7867 14.2267 16 10.6667 16ZM2.66667 21.3333C2.96 20.3733 7.08 18.6667 10.6667 18.6667C14.2667 18.6667 18.4 20.3867 18.6667 21.3333H2.66667Z" fill="#4F46E5"/>
<path d="M4.98536 8.00004H5.33203C5.33203 10.9467 7.7187 13.3334 10.6654 13.3334C13.612 13.3334 15.9987 10.9467 15.9987 8.00004H16.3454C16.7054 8.00004 16.9987 7.70671 16.9987 7.34671V7.32004C16.9987 6.96004 16.7054 6.66671 16.3454 6.66671H15.9987C15.9987 4.69337 14.9187 3.00004 13.332 2.06671V3.33337C13.332 3.70671 13.0387 4.00004 12.6654 4.00004C12.292 4.00004 11.9987 3.70671 11.9987 3.33337V1.52004C11.572 1.41337 11.132 1.33337 10.6654 1.33337C10.1987 1.33337 9.7587 1.41337 9.33203 1.52004V3.33337C9.33203 3.70671 9.0387 4.00004 8.66536 4.00004C8.29203 4.00004 7.9987 3.70671 7.9987 3.33337V2.06671C6.41203 3.00004 5.33203 4.69337 5.33203 6.66671H4.98536C4.62536 6.66671 4.33203 6.96004 4.33203 7.32004V7.36004C4.33203 7.70671 4.62536 8.00004 4.98536 8.00004ZM13.332 8.00004C13.332 9.46671 12.132 10.6667 10.6654 10.6667C9.1987 10.6667 7.9987 9.46671 7.9987 8.00004H13.332Z" fill="#4F46E5"/>
<path d="M27.9744 4.30667L29.2144 3.2L28.2144 1.46667L26.6278 1.98667C26.4411 1.84 26.2278 1.72 26.0011 1.62667L25.6678 0H23.6678L23.3344 1.62667C23.1078 1.72 22.8944 1.84 22.6944 1.98667L21.1211 1.46667L20.1211 3.2L21.3611 4.30667C21.3344 4.53333 21.3344 4.77333 21.3611 5L20.1211 6.13333L21.1211 7.86667L22.7211 7.36C22.8944 7.49333 23.0944 7.6 23.2944 7.69333L23.6678 9.33333H25.6678L26.0278 7.70667C26.2411 7.61333 26.4278 7.50667 26.6144 7.37333L28.2011 7.88L29.2011 6.14667L27.9611 5.01333C28.0011 4.76 27.9878 4.53333 27.9744 4.30667ZM24.6678 6.33333C23.7478 6.33333 23.0011 5.58667 23.0011 4.66667C23.0011 3.74667 23.7478 3 24.6678 3C25.5878 3 26.3344 3.74667 26.3344 4.66667C26.3344 5.58667 25.5878 6.33333 24.6678 6.33333Z" fill="#4F46E5"/>
<path d="M24.5351 10.3867L23.4017 10.76C23.2684 10.6534 23.1217 10.5734 22.9617 10.5067L22.7217 9.33337H21.2951L21.0551 10.4934C20.8951 10.56 20.7351 10.6534 20.6017 10.7467L19.4817 10.3734L18.7617 11.6134L19.6417 12.4C19.6284 12.5734 19.6284 12.7334 19.6417 12.8934L18.7617 13.7067L19.4817 14.9467L20.6284 14.5867C20.7617 14.68 20.8951 14.76 21.0417 14.8267L21.2817 16H22.7084L22.9617 14.84C23.1084 14.7734 23.2551 14.6934 23.3884 14.6L24.5217 14.96L25.2417 13.72L24.3617 12.9067C24.3751 12.7334 24.3751 12.5734 24.3617 12.4134L25.2417 11.6267L24.5351 10.3867ZM22.0017 13.8534C21.3484 13.8534 20.8151 13.32 20.8151 12.6667C20.8151 12.0134 21.3484 11.48 22.0017 11.48C22.6551 11.48 23.1884 12.0134 23.1884 12.6667C23.1884 13.32 22.6551 13.8534 22.0017 13.8534Z" fill="#4F46E5"/>
</svg>
