<svg width="48" height="48" viewBox="0 0 48 48" fill="none" xmlns="http://www.w3.org/2000/svg">
<path d="M0 8C0 3.58172 3.58172 0 8 0H40C44.4183 0 48 3.58172 48 8V40C48 44.4183 44.4183 48 40 48H8C3.58172 48 0 44.4183 0 40V8Z" fill="#E0E7FF"/>
<path d="M0 8C0 3.58172 3.58172 0 8 0H40C44.4183 0 48 3.58172 48 8V40C48 44.4183 44.4183 48 40 48H8C3.58172 48 0 44.4183 0 40V8Z" stroke="#E5E7EB"/>
<path d="M14 14H34V34H14V14Z" stroke="#E5E7EB"/>
<path d="M14 14H34V34H14V14Z" stroke="#E5E7EB"/>
<path d="M16.5 16.5C16.5 15.8086 15.9414 15.25 15.25 15.25C14.5586 15.25 14 15.8086 14 16.5V29.625C14 31.3516 15.3984 32.75 17.125 32.75H32.75C33.4414 32.75 34 32.1914 34 31.5C34 30.8086 33.4414 30.25 32.75 30.25H17.125C16.7812 30.25 16.5 29.9688 16.5 29.625V16.5ZM32.3828 19.8828C32.8711 19.3945 32.8711 18.6016 32.3828 18.1133C31.8945 17.625 31.1016 17.625 30.6133 18.1133L26.5 22.2305L24.2578 19.9883C23.7695 19.5 22.9766 19.5 22.4883 19.9883L18.1133 24.3633C17.625 24.8516 17.625 25.6445 18.1133 26.1328C18.6016 26.6211 19.3945 26.6211 19.8828 26.1328L23.375 22.6445L25.6172 24.8867C26.1055 25.375 26.8984 25.375 27.3867 24.8867L32.3867 19.8867L32.3828 19.8828Z" fill="#4F46E5"/>
</svg>
