<svg width="24" height="24" viewBox="0 0 24 24" fill="none" xmlns="http://www.w3.org/2000/svg">
<path d="M22.5733 7.70824L17.7733 9.87189L14.6667 6.87112V5.06808L17.7733 2.0673L22.5733 4.23095C23.08 4.46277 23.6667 4.24383 23.9067 3.76731C24.1467 3.27791 23.92 2.71125 23.4267 2.47943L18.2 0.122595C17.6933 -0.109225 17.0933 -0.00619386 16.6933 0.380172L14.3733 2.62109C14.1333 2.312 13.76 2.10594 13.3333 2.10594C12.6 2.10594 12 2.68549 12 3.39382V4.68171H7.76C7.2 3.18776 5.73333 2.10594 4 2.10594C1.78667 2.10594 0 3.83171 0 5.9696C0 7.38627 0.8 8.60976 1.97333 9.29234L5.44 20.1363H4C2.53333 20.1363 1.33333 21.2954 1.33333 22.7121V24H18.6667V22.7121C18.6667 21.2954 17.4667 20.1363 16 20.1363H13.84L7.21333 8.24916C7.44 7.94006 7.62667 7.61809 7.76 7.25748H12V8.54537C12 9.25371 12.6 9.83325 13.3333 9.83325C13.76 9.83325 14.1333 9.62719 14.3733 9.3181L16.6933 11.559C17.0933 11.9454 17.6933 12.0484 18.2 11.8166L23.4267 9.45977C23.9333 9.22795 24.1467 8.66128 23.9067 8.17188C23.6667 7.69536 23.08 7.47642 22.5733 7.70824ZM4 7.25748C3.26667 7.25748 2.66667 6.67793 2.66667 5.9696C2.66667 5.26126 3.26667 4.68171 4 4.68171C4.73333 4.68171 5.33333 5.26126 5.33333 5.9696C5.33333 6.67793 4.73333 7.25748 4 7.25748ZM10.8133 20.1363H8.22667L4.94667 9.83325H5.08L10.8133 20.1363Z" fill="#4F46E5"/>
</svg>
