<svg width="50" height="50" viewBox="0 0 50 50" fill="none" xmlns="http://www.w3.org/2000/svg">
<rect width="50" height="50" rx="12" fill="#EFF3FF"/>
<mask id="mask0_262_481" style="mask-type:alpha" maskUnits="userSpaceOnUse" x="11" y="13" width="28" height="28">
<rect x="11" y="13" width="28" height="28" fill="#D9D9D9"/>
</mask>
<g mask="url(#mask0_262_481)">
<path d="M22.375 37.5C21.3833 37.5 20.5278 37.1549 19.8083 36.4646C19.0889 35.7743 18.6806 34.9431 18.5833 33.9708C17.4167 33.8153 16.4444 33.3 15.6667 32.425C14.8889 31.55 14.5 30.5194 14.5 29.3333C14.5 28.925 14.5535 28.5215 14.6604 28.1229C14.7674 27.7243 14.9278 27.35 15.1417 27C14.9278 26.65 14.7674 26.2806 14.6604 25.8917C14.5535 25.5028 14.5 25.0944 14.5 24.6667C14.5 23.4806 14.8889 22.4549 15.6667 21.5896C16.4444 20.7243 17.4069 20.2139 18.5542 20.0583C18.6125 19.0667 19.0111 18.2257 19.75 17.5354C20.4889 16.8451 21.3639 16.5 22.375 16.5C22.8806 16.5 23.3521 16.5972 23.7896 16.7917C24.2271 16.9861 24.6306 17.2486 25 17.5792C25.35 17.2486 25.7486 16.9861 26.1958 16.7917C26.6431 16.5972 27.1194 16.5 27.625 16.5C28.6361 16.5 29.5062 16.8403 30.2354 17.5208C30.9646 18.2014 31.3583 19.0375 31.4167 20.0292C32.5639 20.1847 33.5312 20.7 34.3188 21.575C35.1063 22.45 35.5 23.4806 35.5 24.6667C35.5 25.0944 35.4465 25.5028 35.3396 25.8917C35.2326 26.2806 35.0722 26.65 34.8583 27C35.0722 27.35 35.2326 27.7243 35.3396 28.1229C35.4465 28.5215 35.5 28.925 35.5 29.3333C35.5 30.5389 35.1063 31.5743 34.3188 32.4396C33.5312 33.3049 32.5542 33.8153 31.3875 33.9708C31.2903 34.9431 30.8868 35.7743 30.1771 36.4646C29.4674 37.1549 28.6167 37.5 27.625 37.5C27.1389 37.5 26.6674 37.4076 26.2104 37.2229C25.7535 37.0382 25.35 36.7806 25 36.45C24.6306 36.7806 24.2222 37.0382 23.775 37.2229C23.3278 37.4076 22.8611 37.5 22.375 37.5ZM26.1667 20.2917V33.7083C26.1667 34.1167 26.3076 34.4618 26.5896 34.7437C26.8715 35.0257 27.2167 35.1667 27.625 35.1667C28.0139 35.1667 28.3493 35.0111 28.6312 34.7C28.9132 34.3889 29.0639 34.0389 29.0833 33.65C28.675 33.4944 28.3007 33.2854 27.9604 33.0229C27.6201 32.7604 27.3139 32.4444 27.0417 32.075C26.8472 31.8028 26.7743 31.5111 26.8229 31.2C26.8715 30.8889 27.0319 30.6361 27.3042 30.4417C27.5764 30.2472 27.8681 30.1743 28.1792 30.2229C28.4903 30.2715 28.7431 30.4319 28.9375 30.7042C29.1514 31.0153 29.4236 31.2535 29.7542 31.4187C30.0847 31.584 30.4444 31.6667 30.8333 31.6667C31.475 31.6667 32.0243 31.4382 32.4813 30.9812C32.9382 30.5243 33.1667 29.975 33.1667 29.3333C33.1667 29.2361 33.1618 29.1389 33.1521 29.0417C33.1424 28.9444 33.1181 28.8472 33.0792 28.75C32.7486 28.9444 32.3937 29.0903 32.0146 29.1875C31.6354 29.2847 31.2417 29.3333 30.8333 29.3333C30.5028 29.3333 30.2257 29.2215 30.0021 28.9979C29.7785 28.7743 29.6667 28.4972 29.6667 28.1667C29.6667 27.8361 29.7785 27.559 30.0021 27.3354C30.2257 27.1118 30.5028 27 30.8333 27C31.475 27 32.0243 26.7715 32.4813 26.3146C32.9382 25.8576 33.1667 25.3083 33.1667 24.6667C33.1667 24.025 32.9382 23.4806 32.4813 23.0333C32.0243 22.5861 31.475 22.3528 30.8333 22.3333C30.6194 22.6833 30.3424 22.9896 30.0021 23.2521C29.6618 23.5146 29.2875 23.7236 28.8792 23.8792C28.5681 23.9958 28.2667 23.9861 27.975 23.85C27.6833 23.7139 27.4889 23.4903 27.3917 23.1792C27.2944 22.8681 27.309 22.5667 27.4354 22.275C27.5618 21.9833 27.7806 21.7889 28.0917 21.6917C28.3833 21.5944 28.6215 21.4194 28.8062 21.1667C28.991 20.9139 29.0833 20.6222 29.0833 20.2917C29.0833 19.8833 28.9424 19.5382 28.6604 19.2562C28.3785 18.9743 28.0333 18.8333 27.625 18.8333C27.2167 18.8333 26.8715 18.9743 26.5896 19.2562C26.3076 19.5382 26.1667 19.8833 26.1667 20.2917ZM23.8333 33.7083V20.2917C23.8333 19.8833 23.6924 19.5382 23.4104 19.2562C23.1285 18.9743 22.7833 18.8333 22.375 18.8333C21.9667 18.8333 21.6215 18.9743 21.3396 19.2562C21.0576 19.5382 20.9167 19.8833 20.9167 20.2917C20.9167 20.6028 21.0042 20.8896 21.1792 21.1521C21.3542 21.4146 21.5875 21.5944 21.8792 21.6917C22.1903 21.7889 22.4139 21.9833 22.55 22.275C22.6861 22.5667 22.7056 22.8681 22.6083 23.1792C22.4917 23.4903 22.2875 23.7139 21.9958 23.85C21.7042 23.9861 21.4028 23.9958 21.0917 23.8792C20.6833 23.7236 20.309 23.5146 19.9688 23.2521C19.6285 22.9896 19.3514 22.6833 19.1375 22.3333C18.5153 22.3528 17.9757 22.591 17.5187 23.0479C17.0618 23.5049 16.8333 24.0444 16.8333 24.6667C16.8333 25.3083 17.0618 25.8576 17.5187 26.3146C17.9757 26.7715 18.525 27 19.1667 27C19.4972 27 19.7743 27.1118 19.9979 27.3354C20.2215 27.559 20.3333 27.8361 20.3333 28.1667C20.3333 28.4972 20.2215 28.7743 19.9979 28.9979C19.7743 29.2215 19.4972 29.3333 19.1667 29.3333C18.7583 29.3333 18.3646 29.2847 17.9854 29.1875C17.6062 29.0903 17.2514 28.9444 16.9208 28.75C16.8819 28.8472 16.8576 28.9444 16.8479 29.0417C16.8382 29.1389 16.8333 29.2361 16.8333 29.3333C16.8333 29.975 17.0618 30.5243 17.5187 30.9812C17.9757 31.4382 18.525 31.6667 19.1667 31.6667C19.5556 31.6667 19.9153 31.584 20.2458 31.4187C20.5764 31.2535 20.8486 31.0153 21.0625 30.7042C21.2569 30.4319 21.5097 30.2715 21.8208 30.2229C22.1319 30.1743 22.4236 30.2472 22.6958 30.4417C22.9681 30.6361 23.1285 30.8889 23.1771 31.2C23.2257 31.5111 23.1528 31.8028 22.9583 32.075C22.6861 32.4444 22.375 32.7653 22.025 33.0375C21.675 33.3097 21.2958 33.5236 20.8875 33.6792C20.9069 34.0681 21.0625 34.4132 21.3542 34.7146C21.6458 35.016 21.9861 35.1667 22.375 35.1667C22.7833 35.1667 23.1285 35.0257 23.4104 34.7437C23.6924 34.4618 23.8333 34.1167 23.8333 33.7083Z" fill="#515CDA"/>
</g>
</svg>
