<svg width="50" height="50" viewBox="0 0 50 50" fill="none" xmlns="http://www.w3.org/2000/svg">
<rect width="50" height="50" rx="12" fill="#EFF3FF"/>
<mask id="mask0_262_489" style="mask-type:alpha" maskUnits="userSpaceOnUse" x="11" y="13" width="24" height="24">
<rect x="11" y="13" width="24" height="24" fill="#D9D9D9"/>
</mask>
<g mask="url(#mask0_262_489)">
<path d="M16 34C15.45 34 14.9792 33.8042 14.5875 33.4125C14.1958 33.0208 14 32.55 14 32V18C14 17.45 14.1958 16.9792 14.5875 16.5875C14.9792 16.1958 15.45 16 16 16H30C30.55 16 31.0208 16.1958 31.4125 16.5875C31.8042 16.9792 32 17.45 32 18V32C32 32.55 31.8042 33.0208 31.4125 33.4125C31.0208 33.8042 30.55 34 30 34H16ZM16 29.95V32H30V23.25L24.05 30L20 25.95L16 29.95ZM16 27.1L20 23.1L23.95 27.05L30 20.25V18H16V27.1ZM16 23.25V20.25V27.05V23.1V29.95V25.95V30V23.25ZM16 27.1V18V27.05V23.1V27.1ZM16 29.95V25.95V30V23.25V32V29.95Z" fill="#515CDA"/>
</g>
</svg>
