<svg width="50" height="50" viewBox="0 0 50 50" fill="none" xmlns="http://www.w3.org/2000/svg">
<rect width="50" height="50" rx="12" fill="#EFF3FF"/>
<mask id="mask0_262_497" style="mask-type:alpha" maskUnits="userSpaceOnUse" x="11" y="13" width="24" height="24">
<rect x="11" y="13" width="24" height="24" fill="#D9D9D9"/>
</mask>
<g mask="url(#mask0_262_497)">
<path d="M23 35C21.6167 35 20.3167 34.7375 19.1 34.2125C17.8833 33.6875 16.825 32.975 15.925 32.075C15.025 31.175 14.3125 30.1167 13.7875 28.9C13.2625 27.6833 13 26.3833 13 25C13 23.6167 13.2625 22.3167 13.7875 21.1C14.3125 19.8833 15.025 18.825 15.925 17.925C16.825 17.025 17.8833 16.3125 19.1 15.7875C20.3167 15.2625 21.6167 15 23 15C24.3833 15 25.6833 15.2625 26.9 15.7875C28.1167 16.3125 29.175 17.025 30.075 17.925C30.975 18.825 31.6875 19.8833 32.2125 21.1C32.7375 22.3167 33 23.6167 33 25C33 26.3833 32.7375 27.6833 32.2125 28.9C31.6875 30.1167 30.975 31.175 30.075 32.075C29.175 32.975 28.1167 33.6875 26.9 34.2125C25.6833 34.7375 24.3833 35 23 35ZM23 33C25.2333 33 27.125 32.225 28.675 30.675C30.225 29.125 31 27.2333 31 25C31 22.7667 30.225 20.875 28.675 19.325C27.125 17.775 25.2333 17 23 17C20.7667 17 18.875 17.775 17.325 19.325C15.775 20.875 15 22.7667 15 25C15 27.2333 15.775 29.125 17.325 30.675C18.875 32.225 20.7667 33 23 33ZM23 31C21.3333 31 19.9167 30.4167 18.75 29.25C17.5833 28.0833 17 26.6667 17 25C17 23.3333 17.5833 21.9167 18.75 20.75C19.9167 19.5833 21.3333 19 23 19C24.6667 19 26.0833 19.5833 27.25 20.75C28.4167 21.9167 29 23.3333 29 25C29 26.6667 28.4167 28.0833 27.25 29.25C26.0833 30.4167 24.6667 31 23 31ZM23 29C24.1 29 25.0417 28.6083 25.825 27.825C26.6083 27.0417 27 26.1 27 25C27 23.9 26.6083 22.9583 25.825 22.175C25.0417 21.3917 24.1 21 23 21C21.9 21 20.9583 21.3917 20.175 22.175C19.3917 22.9583 19 23.9 19 25C19 26.1 19.3917 27.0417 20.175 27.825C20.9583 28.6083 21.9 29 23 29ZM23 27C22.45 27 21.9792 26.8042 21.5875 26.4125C21.1958 26.0208 21 25.55 21 25C21 24.45 21.1958 23.9792 21.5875 23.5875C21.9792 23.1958 22.45 23 23 23C23.55 23 24.0208 23.1958 24.4125 23.5875C24.8042 23.9792 25 24.45 25 25C25 25.55 24.8042 26.0208 24.4125 26.4125C24.0208 26.8042 23.55 27 23 27Z" fill="#515CDA"/>
</g>
</svg>
